<svg width="26" height="26" viewBox="0 0 26 26" fill="none" xmlns="http://www.w3.org/2000/svg">
<path fill-rule="evenodd" clip-rule="evenodd" d="M22 13C22 8.02944 17.9706 4 13 4C8.02944 4 4 8.02944 4 13C4 17.9706 8.02944 22 13 22C17.9706 22 22 17.9706 22 13ZM21 13C21 8.18723 17.4183 4.28571 13 4.28571C8.58172 4.28571 5 8.18723 5 13C5 17.8128 8.58172 21.7143 13 21.7143C17.4183 21.7143 21 17.8128 21 13Z" fill="#FF1995"/>
<path fill-rule="evenodd" clip-rule="evenodd" d="M17.9103 13.1325L17.9106 13.1319C17.9105 12.0299 17.5751 11.009 17.0042 10.1727C16.8179 9.89984 16.8318 9.47329 17.0186 9.20072C17.3747 8.68106 16.9647 8 16.3348 8H12.9553H9.57579C8.94583 8 8.53586 8.68106 8.89197 9.20072C9.07875 9.47329 9.09265 9.89984 8.90635 10.1727C8.3355 11.009 8.00007 12.0299 8 13.1319L8.00025 13.1325L8.00156 13.1339L8 13.1319C9.89378 13.1319 11.6654 14.2222 12.2141 16.0347C12.6653 17.5249 12.9553 19.0974 12.9553 20.6635C12.9553 19.0974 13.2453 17.5249 13.6964 16.0347C14.2451 14.2222 16.0168 13.1319 17.9106 13.1319L17.909 13.1339L17.9103 13.1325ZM12.9553 12.4489C13.5696 12.4489 14.0676 11.9509 14.0676 11.3367C14.0676 10.7224 13.5696 10.2245 12.9553 10.2245C12.3411 10.2245 11.8431 10.7224 11.8431 11.3367C11.8431 11.9509 12.3411 12.4489 12.9553 12.4489Z" fill="#FF1995"/>
</svg>
