<svg width="26" height="26" viewBox="0 0 26 26" fill="none" xmlns="http://www.w3.org/2000/svg">
<path fill-rule="evenodd" clip-rule="evenodd" d="M22 13C22 8.02944 17.9706 4 13 4C8.02944 4 4 8.02944 4 13C4 17.9706 8.02944 22 13 22C17.9706 22 22 17.9706 22 13ZM21 13C21 8.18723 17.4183 4.28571 13 4.28571C8.58172 4.28571 5 8.18723 5 13C5 17.8128 8.58172 21.7143 13 21.7143C17.4183 21.7143 21 17.8128 21 13Z" fill="#FF1995"/>
<path d="M19 13C15 13 13 9.96552 13 5C13 9.96552 11 13 7 13C11 13 13 16.0345 13 21C13 16.0345 15 13 19 13Z" fill="#FF1995"/>
</svg>
